<mxfile host="app.diagrams.net" modified="2020-06-06T17:19:45.308Z" agent="5.0 (X11; Linux x86_64) AppleWebKit/537.36 (KHTML, like Gecko) Chrome/81.0.4044.122 Safari/537.36" etag="1Mh0gE97rH28yTV3J1Nv" version="13.1.11" type="github" pages="4">
  <diagram id="mYV5fHMhs3SO6_IcKCSN" name="Top">
    <mxGraphModel dx="1359" dy="801" grid="1" gridSize="10" guides="1" tooltips="1" connect="1" arrows="1" fold="1" page="1" pageScale="1" pageWidth="827" pageHeight="1169" math="0" shadow="0">
      <root>
        <mxCell id="0" />
        <mxCell id="1" parent="0" />
        <mxCell id="8OQvFZ2Zipv02wQBPf4X-1" value="&lt;h1&gt;Vision-Backend&lt;/h1&gt;&lt;p&gt;Vision backendについていろいろまとめてみた。&lt;br&gt;&lt;br&gt;&lt;/p&gt;&lt;p&gt;目次：&lt;/p&gt;&lt;p&gt;- GTSAMメモ；Factor graphについてなど&lt;br&gt;Exampleのコメントも参照&lt;/p&gt;&lt;a href=&quot;https://github.com/eryeden/vi-slam/tree/feature-GTSAM-integration/example/gtsam&quot;&gt;https://github.com/eryeden/vi-slam/tree/feature-GTSAM-integration/example/gtsam&lt;/a&gt;&lt;br&gt;&lt;br&gt;- Backend review&lt;br&gt;&lt;br&gt;- Proposed Backend" style="text;html=1;strokeColor=none;fillColor=none;spacing=5;spacingTop=-20;whiteSpace=wrap;overflow=hidden;rounded=0;" parent="1" vertex="1">
          <mxGeometry x="20" y="20" width="410" height="270" as="geometry" />
        </mxCell>
      </root>
    </mxGraphModel>
  </diagram>
  <diagram id="CG2pjZPTrM2GcYqYaMGn" name="GTSAMのメモ">
    
    <mxGraphModel dx="1599" dy="1052" grid="1" gridSize="10" guides="1" tooltips="1" connect="1" arrows="1" fold="1" page="1" pageScale="1" pageWidth="827" pageHeight="1169" math="1" shadow="0">
      
      <root>
        
        <mxCell id="malhQMyiqFlj0tt06wjK-0" />
        
        <mxCell id="malhQMyiqFlj0tt06wjK-1" parent="malhQMyiqFlj0tt06wjK-0" />
        
        <mxCell id="y6ONzhfBYeOvc6R4NJ2u-31" value="" style="shape=image;verticalLabelPosition=bottom;labelBackgroundColor=#ffffff;verticalAlign=top;aspect=fixed;imageAspect=0;image=https://upload.wikimedia.org/wikipedia/commons/thumb/8/8e/MultivariateNormal.png/300px-MultivariateNormal.png;" parent="malhQMyiqFlj0tt06wjK-1" vertex="1">
          
          <mxGeometry x="1006" y="870" width="181.05" height="137" as="geometry" />
          
        </mxCell>
        
        <mxCell id="y6ONzhfBYeOvc6R4NJ2u-0" value="&lt;h1&gt;GTSAM&lt;/h1&gt;&lt;p&gt;iSAM2をVision backendに使う予定である。iSAM2はGTSAM内に実装されているらしいので、この使い方をメモしておく。&lt;/p&gt;" style="text;html=1;strokeColor=none;fillColor=none;spacing=5;spacingTop=-20;whiteSpace=wrap;overflow=hidden;rounded=0;" parent="malhQMyiqFlj0tt06wjK-1" vertex="1">
          
          <mxGeometry x="20" y="40" width="730" height="80" as="geometry" />
          
        </mxCell>
        
        <mxCell id="y6ONzhfBYeOvc6R4NJ2u-1" value="参考：&lt;br&gt;&lt;a href=&quot;https://gtsam.org/tutorials/intro.html&quot;&gt;https://gtsam.org/tutorials/intro.html&lt;/a&gt;" style="text;html=1;align=left;verticalAlign=middle;resizable=0;points=[];autosize=1;" parent="malhQMyiqFlj0tt06wjK-1" vertex="1">
          
          <mxGeometry x="20" y="120" width="200" height="30" as="geometry" />
          
        </mxCell>
        
        <mxCell id="y6ONzhfBYeOvc6R4NJ2u-2" value="基本の登場人物&lt;br&gt;- Fractor graph&lt;br&gt;&lt;div&gt;- Variables : 推定したい値&lt;/div&gt;&lt;div&gt;- Factors：Variableに対する確率的な拘束条件、ここに観測値や、観測モデルが入っていくる。&lt;/div&gt;" style="text;html=1;align=left;verticalAlign=middle;resizable=0;points=[];autosize=1;" parent="malhQMyiqFlj0tt06wjK-1" vertex="1">
          
          <mxGeometry x="10" y="170" width="520" height="60" as="geometry" />
          
        </mxCell>
        
        <mxCell id="y6ONzhfBYeOvc6R4NJ2u-3" value="&lt;font style=&quot;font-size: 15px&quot;&gt;&lt;b&gt;Factor Graphってなに？&lt;/b&gt;&lt;/font&gt;&lt;br&gt;&lt;br&gt;隠れマルコフモデル（HMM）というのが元になっているらしい。&lt;br&gt;隠れマルコフモデルは、モデルの内部状態が直接観測できない状態繊維モデルのことらしい。&lt;br&gt;考えて見ると、GTSAMで扱いたい問題はほとんどHMMになりそうだ。&lt;br&gt;VSLAMや位置推定であっても、ロボットの本当のPoseは直接観測できない場合がほとんど。センサにノイズが乗っていたり、積分が必要だったり。" style="text;html=1;align=left;verticalAlign=middle;resizable=0;points=[];autosize=1;" parent="malhQMyiqFlj0tt06wjK-1" vertex="1">
          
          <mxGeometry x="10" y="585" width="810" height="90" as="geometry" />
          
        </mxCell>
        
        <mxCell id="y6ONzhfBYeOvc6R4NJ2u-4" value="個人的に…&lt;br&gt;この先、確率の話が大量に登場する。いつも確率の話が出てくると、&lt;br&gt;実際の数式、計算の処理に結びつけて理解できなくなる。どうにか抽象的な話を&lt;br&gt;プログラムとして記述できる具体的な話として変換しつつ進めていきたい。&lt;br&gt;とりあえず、現状の確率というものの理解を下に書いておく。&lt;br&gt;&lt;br&gt;\( X_1 \) の意味は？&lt;br&gt;何らかの数値、物理量などがこの \( X_1 \) として表現される。&lt;br&gt;普通の変数との違いは、 \( P(X_1) \) となったときに確率が出力されること。&lt;br&gt;&lt;br&gt;&lt;br&gt;\( P(X_1) \)の意味は？ \( X_1 \) との違いは？&lt;br&gt;\(X_1 \)はなんらかの値（物理量など）を示す。&lt;br&gt;\( P(X_1) \) は\(X_1\)が、ある値1や2などを撮る場合の確率を示す。&lt;br&gt;なのでよくある正規分布の図は、横軸\(X_1\)、縦軸\( P(X_1) \)になる。&lt;br&gt;&lt;br&gt;とりあえず、ある現象をモデル化するときに、&lt;br&gt;背後にある複雑、モデル化困難なメカニズムを簡単にモデル化する手法として、&lt;br&gt;すべての出力値に値の出やすさという数値を関連付けるという単純な方法があって、&lt;br&gt;これが確率変数、確率密度関数というものであると、理解しておく…とりあえず。" style="text;html=1;align=left;verticalAlign=middle;resizable=0;points=[];autosize=1;" parent="malhQMyiqFlj0tt06wjK-1" vertex="1">
          
          <mxGeometry x="10" y="260" width="470" height="290" as="geometry" />
          
        </mxCell>
        
        <mxCell id="y6ONzhfBYeOvc6R4NJ2u-9" value="" style="endArrow=classic;html=1;" parent="malhQMyiqFlj0tt06wjK-1" edge="1">
          
          <mxGeometry width="50" height="50" relative="1" as="geometry">
            
            <mxPoint x="540" y="510" as="sourcePoint" />
            
            <mxPoint x="820" y="510" as="targetPoint" />
            
          </mxGeometry>
          
        </mxCell>
        
        <mxCell id="y6ONzhfBYeOvc6R4NJ2u-10" value="" style="endArrow=classic;html=1;" parent="malhQMyiqFlj0tt06wjK-1" edge="1">
          
          <mxGeometry width="50" height="50" relative="1" as="geometry">
            
            <mxPoint x="540" y="510" as="sourcePoint" />
            
            <mxPoint x="540" y="360" as="targetPoint" />
            
          </mxGeometry>
          
        </mxCell>
        
        <mxCell id="y6ONzhfBYeOvc6R4NJ2u-11" value="\( X_1 \)" style="text;html=1;align=center;verticalAlign=middle;resizable=0;points=[];autosize=1;" parent="malhQMyiqFlj0tt06wjK-1" vertex="1">
          
          <mxGeometry x="650" y="520" width="60" height="20" as="geometry" />
          
        </mxCell>
        
        <mxCell id="y6ONzhfBYeOvc6R4NJ2u-12" value="\( P(X_1) \)" style="text;html=1;align=center;verticalAlign=middle;resizable=0;points=[];autosize=1;" parent="malhQMyiqFlj0tt06wjK-1" vertex="1">
          
          <mxGeometry x="460" y="415" width="70" height="20" as="geometry" />
          
        </mxCell>
        
        <mxCell id="y6ONzhfBYeOvc6R4NJ2u-13" value="" style="endArrow=none;html=1;" parent="malhQMyiqFlj0tt06wjK-1" edge="1">
          
          <mxGeometry width="50" height="50" relative="1" as="geometry">
            
            <mxPoint x="570" y="490" as="sourcePoint" />
            
            <mxPoint x="790" y="490" as="targetPoint" />
            
            <Array as="points">
              
              <mxPoint x="640" y="460" />
              
              <mxPoint x="670" y="380" />
              
              <mxPoint x="700" y="460" />
              
            </Array>
            
          </mxGeometry>
          
        </mxCell>
        
        <mxCell id="y6ONzhfBYeOvc6R4NJ2u-14" value="このグラフの形はいかようにも変えることができ、&lt;br&gt;この形一つによって、数式として書き下すことが困難な&lt;br&gt;現象であっても表現できる、、、、という理解です" style="text;html=1;align=center;verticalAlign=middle;resizable=0;points=[];autosize=1;" parent="malhQMyiqFlj0tt06wjK-1" vertex="1">
          
          <mxGeometry x="740" y="385" width="310" height="50" as="geometry" />
          
        </mxCell>
        
        <mxCell id="y6ONzhfBYeOvc6R4NJ2u-15" value="" style="shape=image;verticalLabelPosition=bottom;labelBackgroundColor=#ffffff;verticalAlign=top;aspect=fixed;imageAspect=0;image=https://gtsam.org/tutorials/intro-images/2_Users_dellaert_git_github_doc_images_hmm.png;" parent="malhQMyiqFlj0tt06wjK-1" vertex="1">
          
          <mxGeometry x="150" y="710" width="398.2" height="170" as="geometry" />
          
        </mxCell>
        
        <mxCell id="y6ONzhfBYeOvc6R4NJ2u-16" value="HMM" style="text;html=1;align=center;verticalAlign=middle;resizable=0;points=[];autosize=1;" parent="malhQMyiqFlj0tt06wjK-1" vertex="1">
          
          <mxGeometry x="329.1" y="880" width="40" height="20" as="geometry" />
          
        </mxCell>
        
        <mxCell id="y6ONzhfBYeOvc6R4NJ2u-17" value="HMMの模式図。&lt;br&gt;観測値は\( Z_{1,2,3,...} \)&lt;br&gt;内部状態は\( X_{1,2,3,...} \)&lt;br&gt;ここでの変数は全て確率変数らしい" style="text;html=1;align=center;verticalAlign=middle;resizable=0;points=[];autosize=1;" parent="malhQMyiqFlj0tt06wjK-1" vertex="1">
          
          <mxGeometry x="540" y="765" width="210" height="60" as="geometry" />
          
        </mxCell>
        
        <mxCell id="y6ONzhfBYeOvc6R4NJ2u-19" style="edgeStyle=orthogonalEdgeStyle;rounded=0;orthogonalLoop=1;jettySize=auto;html=1;entryX=0.342;entryY=0.294;entryDx=0;entryDy=0;entryPerimeter=0;" parent="malhQMyiqFlj0tt06wjK-1" source="y6ONzhfBYeOvc6R4NJ2u-18" target="y6ONzhfBYeOvc6R4NJ2u-15" edge="1">
          
          <mxGeometry relative="1" as="geometry" />
          
        </mxCell>
        
        <mxCell id="y6ONzhfBYeOvc6R4NJ2u-18" value="矢印は条件付き確率密度関数に相当するらしい" style="text;html=1;align=center;verticalAlign=middle;resizable=0;points=[];autosize=1;" parent="malhQMyiqFlj0tt06wjK-1" vertex="1">
          
          <mxGeometry x="40" y="702" width="270" height="20" as="geometry" />
          
        </mxCell>
        
        <mxCell id="y6ONzhfBYeOvc6R4NJ2u-20" value="\( P(X_2 | X_1) \)" style="text;html=1;align=center;verticalAlign=middle;resizable=0;points=[];autosize=1;" parent="malhQMyiqFlj0tt06wjK-1" vertex="1">
          
          <mxGeometry x="230" y="720" width="110" height="20" as="geometry" />
          
        </mxCell>
        
        <mxCell id="y6ONzhfBYeOvc6R4NJ2u-21" value="" style="shape=image;verticalLabelPosition=bottom;labelBackgroundColor=#ffffff;verticalAlign=top;aspect=fixed;imageAspect=0;image=https://upload.wikimedia.org/wikipedia/commons/thumb/5/57/Multivariate_Gaussian.png/300px-Multivariate_Gaussian.png;" parent="malhQMyiqFlj0tt06wjK-1" vertex="1">
          
          <mxGeometry x="808.83" y="710" width="172.34" height="108" as="geometry" />
          
        </mxCell>
        
        <mxCell id="y6ONzhfBYeOvc6R4NJ2u-22" value="\( P(Y|X) \)の話&lt;br&gt;たぶんだが、&lt;br&gt;Xの値が決まれば、Xの値の平面で&lt;br&gt;図形をスライスして、その断面が、Xの値が決まった時の&lt;br&gt;Yの確率密度関数になっているのだろうな。&lt;br&gt;Y自体の確率密度関数がわかれば、Yで一番出力する確率が高い値がわかる（平均値とか？）&lt;br&gt;その値を推定値として、偉い人に教えるなど、ここで初めて利用価値が生まれる気がする。&lt;br&gt;&lt;br&gt;\( P(Y|X=3) = P_{X=3}(Y) \)のように、Xの値が決まっときに&lt;br&gt;ただの確率密度関数になるとおしえられたが、その話がようやくわかった気がする。" style="text;html=1;align=left;verticalAlign=middle;resizable=0;points=[];autosize=1;" parent="malhQMyiqFlj0tt06wjK-1" vertex="1">
          
          <mxGeometry x="1006" y="620" width="510" height="150" as="geometry" />
          
        </mxCell>
        
        <mxCell id="y6ONzhfBYeOvc6R4NJ2u-23" value="" style="shape=parallelogram;perimeter=parallelogramPerimeter;whiteSpace=wrap;html=1;align=left;rotation=-90;size=0.2433392122281001;flipH=1;fillColor=none;" parent="malhQMyiqFlj0tt06wjK-1" vertex="1">
          
          <mxGeometry x="824.12" y="702" width="141.75" height="66.25" as="geometry" />
          
        </mxCell>
        
        <mxCell id="y6ONzhfBYeOvc6R4NJ2u-24" value="Xが決まると&lt;br&gt;この平面で凸をスライスできる" style="text;html=1;align=center;verticalAlign=middle;resizable=0;points=[];autosize=1;" parent="malhQMyiqFlj0tt06wjK-1" vertex="1">
          
          <mxGeometry x="808.83" y="630" width="180" height="30" as="geometry" />
          
        </mxCell>
        
        <mxCell id="y6ONzhfBYeOvc6R4NJ2u-25" value="" style="endArrow=none;html=1;entryX=0.25;entryY=1;entryDx=0;entryDy=0;exitX=0;exitY=0;exitDx=0;exitDy=0;" parent="malhQMyiqFlj0tt06wjK-1" source="y6ONzhfBYeOvc6R4NJ2u-23" target="y6ONzhfBYeOvc6R4NJ2u-23" edge="1">
          
          <mxGeometry width="50" height="50" relative="1" as="geometry">
            
            <mxPoint x="850" y="870" as="sourcePoint" />
            
            <mxPoint x="900" y="820" as="targetPoint" />
            
            <Array as="points">
              
              <mxPoint x="880" y="790" />
              
              <mxPoint x="895" y="750" />
              
              <mxPoint x="910" y="771" />
              
            </Array>
            
          </mxGeometry>
          
        </mxCell>
        
        <mxCell id="y6ONzhfBYeOvc6R4NJ2u-26" value="\( P(Z_1 | X_1) \)" style="text;html=1;align=center;verticalAlign=middle;resizable=0;points=[];autosize=1;" parent="malhQMyiqFlj0tt06wjK-1" vertex="1">
          
          <mxGeometry x="139" y="780" width="100" height="20" as="geometry" />
          
        </mxCell>
        
        <mxCell id="y6ONzhfBYeOvc6R4NJ2u-28" value="\( P(X, Y) \)をプロットした例" style="text;html=1;align=center;verticalAlign=middle;resizable=0;points=[];autosize=1;" parent="malhQMyiqFlj0tt06wjK-1" vertex="1">
          
          <mxGeometry x="808.83" y="818" width="170" height="20" as="geometry" />
          
        </mxCell>
        
        <mxCell id="y6ONzhfBYeOvc6R4NJ2u-30" style="edgeStyle=orthogonalEdgeStyle;rounded=0;orthogonalLoop=1;jettySize=auto;html=1;entryX=0.775;entryY=0.466;entryDx=0;entryDy=0;entryPerimeter=0;" parent="malhQMyiqFlj0tt06wjK-1" source="y6ONzhfBYeOvc6R4NJ2u-29" target="y6ONzhfBYeOvc6R4NJ2u-23" edge="1">
          
          <mxGeometry relative="1" as="geometry">
            
            <Array as="points">
              
              <mxPoint x="950" y="815" />
              
              <mxPoint x="950" y="774" />
              
            </Array>
            
          </mxGeometry>
          
        </mxCell>
        
        <mxCell id="y6ONzhfBYeOvc6R4NJ2u-32" style="edgeStyle=orthogonalEdgeStyle;rounded=0;orthogonalLoop=1;jettySize=auto;html=1;entryX=0.271;entryY=0.314;entryDx=0;entryDy=0;entryPerimeter=0;" parent="malhQMyiqFlj0tt06wjK-1" source="y6ONzhfBYeOvc6R4NJ2u-29" target="y6ONzhfBYeOvc6R4NJ2u-31" edge="1">
          
          <mxGeometry relative="1" as="geometry">
            
            <mxPoint x="1140" y="830" as="targetPoint" />
            
          </mxGeometry>
          
        </mxCell>
        
        <mxCell id="y6ONzhfBYeOvc6R4NJ2u-29" value="\( P(Y|X) \)" style="text;html=1;align=center;verticalAlign=middle;resizable=0;points=[];autosize=1;" parent="malhQMyiqFlj0tt06wjK-1" vertex="1">
          
          <mxGeometry x="1020" y="805" width="70" height="20" as="geometry" />
          
        </mxCell>
        
        <mxCell id="y6ONzhfBYeOvc6R4NJ2u-33" value="これをXに沿って積分すると\( P(Y) \)になる。&lt;br&gt;この操作を周辺化、Marginalizationというらしい。（噂の）&lt;br&gt;用語が難しいがやっていることはほしい確率変数以外を消去するため、&lt;br&gt;全パターン足しこんでいるだけ。" style="text;html=1;align=left;verticalAlign=middle;resizable=0;points=[];autosize=1;" parent="malhQMyiqFlj0tt06wjK-1" vertex="1">
          
          <mxGeometry x="1110" y="800" width="400" height="60" as="geometry" />
          
        </mxCell>
        
        <mxCell id="y6ONzhfBYeOvc6R4NJ2u-34" value="↓式の面では疑問はあるが、イメージ、意味合い的には正しいはず" style="text;html=1;align=center;verticalAlign=middle;resizable=0;points=[];autosize=1;" parent="malhQMyiqFlj0tt06wjK-1" vertex="1">
          
          <mxGeometry x="871" y="590" width="370" height="20" as="geometry" />
          
        </mxCell>
        
        <mxCell id="y6ONzhfBYeOvc6R4NJ2u-35" value="↑のHMMは、あくまでも現象をどうモデル化するかという話。&lt;br&gt;やりたいことは、HMMでは隠されているモデルの内部状態 \( X_1, X_2, X_3 \)を求めること。&lt;br&gt;ここは、\( P(X_1, X_2, X_3 | Z_1 = z_1, Z_2 = z_2, Z_3 = z_3) \)である条件付き確率密度関数が、&lt;br&gt;\( z_1, z_2, z_3 \) という値が観測されたときのシステム状態の確率密度関数として、&lt;br&gt;このP(~)がのピークになている\(X_1, X_2, X_3 \)の値を求めることをこれからやっていく。&lt;br&gt;&lt;br&gt;じゃあ、\( P(X_1, X_2, X_3 | Z_1 = z_1, Z_2 = z_2, Z_3 = z_3) \)はどういう式で、具体的にそういった計算をしたらいいの？&lt;br&gt;という話に繋がっていく。" style="text;html=1;align=left;verticalAlign=middle;resizable=0;points=[];autosize=1;" parent="malhQMyiqFlj0tt06wjK-1" vertex="1">
          
          <mxGeometry x="10" y="930" width="690" height="120" as="geometry" />
          
        </mxCell>
        
        <mxCell id="y6ONzhfBYeOvc6R4NJ2u-37" value="&lt;span&gt;↓の結果になるらしい。&lt;br&gt;\( P(X_1, X_2, X_3 | Z_1 = z_1, Z_2 = z_2, Z_3 = z_3) \propto P(X_1) P(X_2|X_1) P(X_3 | X_2) L(X_1;z_1) L(X_2; z_2) L(X_3; z_3) \)&lt;br&gt;&lt;/span&gt;\( P(X_1) P(X_2|X_1) P(X_3 | X_2) \) : ここはHMMの状態遷移から求まる&lt;br&gt;\( L(X_1;z_1) L(X_2; z_2) L(X_3; z_3) \) : ここは観測値から求める部分&lt;span&gt;&lt;br&gt;&lt;br&gt;\( L(X_1; z_1) \) だが、おそらくベイズ則から求まる。HMMの図から立式すれば、普通に考えて↓のようになるはず。&lt;br&gt;&lt;/span&gt;\( P(X_1, X_2, X_3 | Z_1 = z_1, Z_2 = z_2, Z_3 = z_3) \propto P(X_1) P(X_2|X_1) P(X_3 | X_2) P(Z_1 | X_1) P(Z_2 | X_2) P(Z_3 | X_3) \)&lt;br&gt;&lt;br&gt;&lt;span&gt;ここから、\(P(Z_i | X_i)\)を変形する。&lt;br&gt;\(P(Z_i | X_i) = \frac{P(X_i | Z_i) P(Z_i)}{P(X_i)} \propto P(X_i | Z_i) P(Z_i) = L(X_i ; Z_i = z_i) ????\)&lt;br&gt;&lt;br&gt;&lt;/span&gt;\(P(X_i | Z_i) \)&lt;span&gt;はセンサモデルとして記述できて、利用者が勝手に計算式を設定できる部分と考える。尤度というらしい。&lt;br&gt;\( P(Z_i) \)は\( Z_i \)の事前確率と呼ばれているらしいが、なんのことなのかよくわからない。センサがどの値をどれくらいの確率で出力するかなんてことを&lt;br&gt;なにも情報がない（観測値や内部状態の仮定）状態で計算や仮定することができるのか？\(P(X_i | Z_i) \)はなんとなく納得できるが\( P(Z_i) \)はよくわからない。&lt;br&gt;\( P(X_i) \)は式としては定数なので無視するらしいとよく書かれている、よくわからない。&lt;br&gt;\(P(X_i)\)が定数として省略できるなら、\( P(Z_i) \)も定数となるので消してもいいのではないか？そこのところが全くわからない。&lt;br&gt;&lt;b&gt;↑このへんは確率ロボ入門にかかれていたのであとで読む&lt;/b&gt;&lt;br&gt;&lt;/span&gt;" style="text;html=1;align=left;verticalAlign=middle;resizable=0;points=[];autosize=1;" parent="malhQMyiqFlj0tt06wjK-1" vertex="1">
          
          <mxGeometry x="10" y="1100" width="880" height="240" as="geometry" />
          
        </mxCell>
        
        <mxCell id="y6ONzhfBYeOvc6R4NJ2u-38" value="\( P(Y |X) = P(X, Y) / P(X) \)についてメモ&lt;br&gt;&lt;br&gt;ここで登場する\( P(X) \)は周辺化されたP(X)である。&lt;br&gt;この式は確率変数にある値が入った、上図の一点の値について記述していると考えたほうがわかりやすい気がする。&lt;br&gt;つまり、上図のx = 2, y = 3とか具体的な数字が設定された状態で、&lt;br&gt;\( P(Y = y | X = x) = P(X = x, Y = y) / P(X = x) \)&lt;br&gt;が成り立っているということ。&lt;br&gt;&lt;br&gt;一番の疑問である、なぜ割るのか？ということだが、 \( P(Y | X) \)をY方向に積分して合計1にならないから。&lt;br&gt;\( P(X, Y) \)は、X, Y方向に２D積分すると１になるが、\( P(Y | X) \)は \( P(X, Y) \)の一部をスライスしただけなので、&lt;br&gt;変数Y（ \( P(Y | X) \) ではXは定数扱い）の全区間で積分しても１にならず確率の定義を満たさないらしい。&lt;br&gt;これを解消するためのスケーリングパラメータとしての \(1/ P(X) \)がある。&lt;br&gt;&lt;br&gt;ここまででわかったこととしては、\( P(X) \)の意味合いが結構変わってわかりにくいということ。&lt;br&gt;パターンは２つある。&lt;br&gt;1. \(X\)は取りうる地域全てを表現しており、\( P(X) \)は確率分布の形か何かを表現しているパターン&lt;br&gt;2. \(X\)は代入された後の変数のように値が確定していて、\( P(X) \)はその値の出現する確率の値（これも具体的な値）を表現している&lt;br&gt;上級者から見たら一緒の話なのかもしれないが、少なくともこの段階で俺は結構混乱した。" style="text;html=1;align=left;verticalAlign=middle;resizable=0;points=[];autosize=1;" parent="malhQMyiqFlj0tt06wjK-1" vertex="1">
          
          <mxGeometry x="1006" y="1060" width="810" height="250" as="geometry" />
          
        </mxCell>
        
        <mxCell id="y6ONzhfBYeOvc6R4NJ2u-40" value="Xで積分すると &lt;br&gt;\(P(Y)\)になる" style="text;html=1;align=center;verticalAlign=middle;resizable=0;points=[];autosize=1;" parent="malhQMyiqFlj0tt06wjK-1" vertex="1">
          
          <mxGeometry x="965.87" y="860" width="100" height="30" as="geometry" />
          
        </mxCell>
        
        <mxCell id="y6ONzhfBYeOvc6R4NJ2u-41" value="" style="shape=image;verticalLabelPosition=bottom;labelBackgroundColor=#ffffff;verticalAlign=top;aspect=fixed;imageAspect=0;image=https://gtsam.org/tutorials/intro-images/3_Users_dellaert_git_github_doc_images_hmm-FG.png;" parent="malhQMyiqFlj0tt06wjK-1" vertex="1">
          
          <mxGeometry x="45" y="1470" width="520" height="235" as="geometry" />
          
        </mxCell>
        
        <mxCell id="y6ONzhfBYeOvc6R4NJ2u-42" value="↑でいろいろ出てきた確率的な拘束条件というものは次のFactor graphというものでまとめ上げることが&lt;br&gt;できるらしい&lt;br&gt;確率的な拘束条件とは？&lt;br&gt;おそらく、 \( P(X_i | X_{i-1}) \)だったり、\( L(X_i; z_i ) \)といった式がここに相当すると思われる。" style="text;html=1;align=left;verticalAlign=middle;resizable=0;points=[];autosize=1;" parent="malhQMyiqFlj0tt06wjK-1" vertex="1">
          
          <mxGeometry x="10" y="1430" width="570" height="60" as="geometry" />
          
        </mxCell>
        
        <mxCell id="y6ONzhfBYeOvc6R4NJ2u-43" value="&lt;font style=&quot;font-size: 15px&quot;&gt;&lt;b&gt;具体例：オドメトリを使ったロボット位置の推定 + GPS&lt;br&gt;&lt;/b&gt;&lt;/font&gt;" style="text;html=1;align=left;verticalAlign=middle;resizable=0;points=[];autosize=1;" parent="malhQMyiqFlj0tt06wjK-1" vertex="1">
          
          <mxGeometry x="10" y="1734" width="390" height="20" as="geometry" />
          
        </mxCell>
        
        <mxCell id="y6ONzhfBYeOvc6R4NJ2u-44" value="" style="shape=image;verticalLabelPosition=bottom;labelBackgroundColor=#ffffff;verticalAlign=top;aspect=fixed;imageAspect=0;image=https://gtsam.org/tutorials/intro-images/4_Users_dellaert_git_github_doc_images_FactorGraph.png;" parent="malhQMyiqFlj0tt06wjK-1" vertex="1">
          
          <mxGeometry x="570" y="1705" width="370" height="112" as="geometry" />
          
        </mxCell>
        
        <mxCell id="y6ONzhfBYeOvc6R4NJ2u-45" value="→が今回のFactor graphらしい。&lt;br&gt;\( f_i(***) \) がFactor。&lt;br&gt;&lt;br&gt;GTSAMでやることは、以下の設定。&lt;br&gt;- Factorを設定する&lt;br&gt;- \( x_1, x_2, x_3 \)などのPを最大化したい変数の最適化時初期値を設定する。" style="text;html=1;align=left;verticalAlign=middle;resizable=0;points=[];autosize=1;" parent="malhQMyiqFlj0tt06wjK-1" vertex="1">
          
          <mxGeometry x="10" y="1780" width="440" height="90" as="geometry" />
          
        </mxCell>
        
        <mxCell id="iuoN6O5FOuv3n4ogCXSz-0" value="この例では、\( f_0, f_1, f_2 \)を設定する。" style="text;html=1;align=left;verticalAlign=middle;resizable=0;points=[];autosize=1;" vertex="1" parent="malhQMyiqFlj0tt06wjK-1">
          
          <mxGeometry x="10" y="1900" width="240" height="20" as="geometry" />
          
        </mxCell>
        
        <mxCell id="iuoN6O5FOuv3n4ogCXSz-1" value="ではFの中身はなんなのか？　＝＞Measurement likehoodらしい&lt;br&gt;BetweenFactorはなにかわからないが、UnaryFactorは次のようなモデルを考えることがある。&lt;br&gt;\( L(q;m) = \exp{(-1/2 || h(q) - m ||^2_{\Sigma})} = f(q) \)　&amp;lt;=　普通にガウシアンの形になっている。&lt;br&gt;定数がないのは、FactorGraphだと最終的に全ての積になるため、定数の大きさは関係なくなるため？&lt;br&gt;&lt;br&gt;\( m \) : 観測値や外部設定値&lt;br&gt;\( q \) : 最適化対象のパラメータ&lt;br&gt;\( h(q) \) : 観測モデル、内部パラメータqから観測値を作り出すモデル&lt;br&gt;\( \exp{\{ ... \}}&amp;nbsp;\) : ガウシアンモデル？&lt;br&gt;\( \Sigma \) : 観測値m？このモデルのノイズモデルについてのパラメータ&lt;br&gt;&lt;br&gt;GTSAMでは、UnaryFactorの定義で、NoiseModelFactor1を継承する限り、以下二点の設定でFactorを定義できる。&lt;br&gt;1. 誤差関数 : \( h(q) - m \)&lt;br&gt;2. NoiseModelパラメータ : \( \Sigma \)&lt;br&gt;3. ヤコビアン : \( \frac{\partial (h(q)-m)}{\partial q} \)" style="text;html=1;align=left;verticalAlign=middle;resizable=0;points=[];autosize=1;" vertex="1" parent="malhQMyiqFlj0tt06wjK-1">
          
          <mxGeometry x="10" y="1970" width="630" height="220" as="geometry" />
          
        </mxCell>
        
        <mxCell id="iuoN6O5FOuv3n4ogCXSz-2" value="&lt;div&gt;&lt;span&gt;普通のガウシアン：&lt;/span&gt;&lt;/div&gt;&lt;div&gt;&lt;span&gt;$$ N(x | \mu, \sigma^2) = \frac{1}{\sqrt{2\pi\sigma^2}} \exp{\{&amp;nbsp; -\frac{1}{2} \frac{1}{\sigma^2} (x -\mu)^2 \}} $$&lt;/span&gt;&lt;/div&gt;" style="text;html=1;align=left;verticalAlign=middle;resizable=0;points=[];autosize=1;" vertex="1" parent="malhQMyiqFlj0tt06wjK-1">
          
          <mxGeometry x="630" y="1970" width="580" height="30" as="geometry" />
          
        </mxCell>
        
        <mxCell id="iuoN6O5FOuv3n4ogCXSz-3" value="Odometryだけ" style="text;html=1;align=center;verticalAlign=middle;resizable=0;points=[];autosize=1;" vertex="1" parent="malhQMyiqFlj0tt06wjK-1">
          
          <mxGeometry x="710" y="1797" width="90" height="20" as="geometry" />
          
        </mxCell>
        
        <mxCell id="iuoN6O5FOuv3n4ogCXSz-4" value="" style="shape=image;verticalLabelPosition=bottom;labelBackgroundColor=#ffffff;verticalAlign=top;aspect=fixed;imageAspect=0;image=https://gtsam.org/tutorials/intro-images/5_Users_dellaert_git_github_doc_images_FactorGraph2.png;" vertex="1" parent="malhQMyiqFlj0tt06wjK-1">
          
          <mxGeometry x="1006" y="1710" width="327" height="136" as="geometry" />
          
        </mxCell>
        
        <mxCell id="iuoN6O5FOuv3n4ogCXSz-5" value="Odometry + GPS measurement" style="text;html=1;align=center;verticalAlign=middle;resizable=0;points=[];autosize=1;" vertex="1" parent="malhQMyiqFlj0tt06wjK-1">
          
          <mxGeometry x="1070" y="1830" width="180" height="20" as="geometry" />
          
        </mxCell>
        
        <mxCell id="iuoN6O5FOuv3n4ogCXSz-6" value="ということでGPS MeasurementになるUnary Factorを作っていく&lt;br&gt;&lt;br&gt;決めること：&lt;br&gt;- qのタイプは？ =&amp;gt; Pose2(x,y,heading)&lt;br&gt;- ノイズモデルは？ =&amp;gt; NoseModelFactor1&lt;br&gt;(ここで一つしか結合のないUnary Factorの指定もされる)&lt;br&gt;- 誤差関数\( E(q) =&amp;nbsp; h(q)-m \)は？ =&amp;gt; \([q_x -m_x, q_y - m_y]^T\)&lt;br&gt;- \( h(q) \)のヤコビアンは？ =&amp;gt; \(J= \frac{\partial [q_x, q_y]^T}{\partial \boldsymbol{q}} \)&lt;br&gt;(ここで \( \boldsymbol{q} = [q_x, q_y, q_{\theta}]^T \)なので)&lt;br&gt;=&amp;gt; \( J = [1, 0, 0; 0,1,0]^T \)となる" style="text;html=1;align=left;verticalAlign=middle;resizable=0;points=[];autosize=1;" vertex="1" parent="malhQMyiqFlj0tt06wjK-1">
          
          <mxGeometry x="10" y="2240" width="480" height="150" as="geometry" />
          
        </mxCell>
        
        <mxCell id="iuoN6O5FOuv3n4ogCXSz-12" style="edgeStyle=orthogonalEdgeStyle;rounded=0;orthogonalLoop=1;jettySize=auto;html=1;entryX=0.5;entryY=0;entryDx=0;entryDy=0;endArrow=none;endFill=0;" edge="1" parent="malhQMyiqFlj0tt06wjK-1" source="iuoN6O5FOuv3n4ogCXSz-8" target="iuoN6O5FOuv3n4ogCXSz-9">
          
          <mxGeometry relative="1" as="geometry" />
          
        </mxCell>
        
        <mxCell id="iuoN6O5FOuv3n4ogCXSz-8" value="ｑ" style="ellipse;whiteSpace=wrap;html=1;aspect=fixed;align=center;" vertex="1" parent="malhQMyiqFlj0tt06wjK-1">
          
          <mxGeometry x="40" y="2450" width="30" height="30" as="geometry" />
          
        </mxCell>
        
        <mxCell id="iuoN6O5FOuv3n4ogCXSz-9" value="" style="ellipse;whiteSpace=wrap;html=1;aspect=fixed;align=center;fillColor=#030303;" vertex="1" parent="malhQMyiqFlj0tt06wjK-1">
          
          <mxGeometry x="50" y="2550" width="10" height="10" as="geometry" />
          
        </mxCell>
        
        <mxCell id="iuoN6O5FOuv3n4ogCXSz-13" value="Unary Factor" style="text;html=1;align=center;verticalAlign=middle;resizable=0;points=[];autosize=1;" vertex="1" parent="malhQMyiqFlj0tt06wjK-1">
          
          <mxGeometry x="85" y="2500" width="80" height="20" as="geometry" />
          
        </mxCell>
        
        <mxCell id="iuoN6O5FOuv3n4ogCXSz-14" value="GPS Measurement" style="text;html=1;align=center;verticalAlign=middle;resizable=0;points=[];autosize=1;" vertex="1" parent="malhQMyiqFlj0tt06wjK-1">
          
          <mxGeometry x="75" y="2545" width="120" height="20" as="geometry" />
          
        </mxCell>
        
        <mxCell id="iuoN6O5FOuv3n4ogCXSz-15" value="Unknown variable" style="text;html=1;align=center;verticalAlign=middle;resizable=0;points=[];autosize=1;" vertex="1" parent="malhQMyiqFlj0tt06wjK-1">
          
          <mxGeometry x="75" y="2450" width="110" height="20" as="geometry" />
          
        </mxCell>
        
        <mxCell id="iuoN6O5FOuv3n4ogCXSz-16" value="ここで\( E(q) \)をリターンするのだが、&lt;br&gt;このベクトルの次元はなんでもよさそう？" style="text;html=1;align=left;verticalAlign=middle;resizable=0;points=[];autosize=1;" vertex="1" parent="malhQMyiqFlj0tt06wjK-1">
          
          <mxGeometry x="375" y="2308" width="240" height="30" as="geometry" />
          
        </mxCell>
        
        <mxCell id="iuoN6O5FOuv3n4ogCXSz-18" value="&lt;font style=&quot;font-size: 15px&quot;&gt;&lt;b&gt;具体例：Landmark based SLAM&lt;br&gt;&lt;/b&gt;&lt;/font&gt;" style="text;html=1;align=left;verticalAlign=middle;resizable=0;points=[];autosize=1;" vertex="1" parent="malhQMyiqFlj0tt06wjK-1">
          
          <mxGeometry x="10" y="2640" width="240" height="20" as="geometry" />
          
        </mxCell>
        
        <mxCell id="iuoN6O5FOuv3n4ogCXSz-19" value="" style="shape=image;verticalLabelPosition=bottom;labelBackgroundColor=#ffffff;verticalAlign=top;aspect=fixed;imageAspect=0;image=https://gtsam.org/tutorials/intro-images/12_Users_dellaert_git_github_doc_images_FactorGraph4.png;" vertex="1" parent="malhQMyiqFlj0tt06wjK-1">
          
          <mxGeometry x="510" y="2570" width="354" height="185" as="geometry" />
          
        </mxCell>
        
        <mxCell id="iuoN6O5FOuv3n4ogCXSz-20" value="Landmark based SLAMでは、未知の変数がもう一つ登場する。&lt;br&gt;- Robot Pose　に加えて&lt;br&gt;- Landmark location が登場する" style="text;html=1;align=left;verticalAlign=middle;resizable=0;points=[];autosize=1;" vertex="1" parent="malhQMyiqFlj0tt06wjK-1">
          
          <mxGeometry x="10" y="2690" width="360" height="50" as="geometry" />
          
        </mxCell>
        
        <mxCell id="iuoN6O5FOuv3n4ogCXSz-21" value="Landmark based SLAMのFactor graph" style="text;html=1;align=center;verticalAlign=middle;resizable=0;points=[];autosize=1;" vertex="1" parent="malhQMyiqFlj0tt06wjK-1">
          
          <mxGeometry x="580" y="2755" width="220" height="20" as="geometry" />
          
        </mxCell>
        
        <mxCell id="iuoN6O5FOuv3n4ogCXSz-22" value="\(x_1 \)からLandmark 1を観測する&lt;br&gt;Binary Factor" style="text;html=1;align=center;verticalAlign=middle;resizable=0;points=[];autosize=1;" vertex="1" parent="malhQMyiqFlj0tt06wjK-1">
          
          <mxGeometry x="470" y="2640" width="200" height="30" as="geometry" />
          
        </mxCell>
        
        <mxCell id="iuoN6O5FOuv3n4ogCXSz-23" value="絶対位置は決まらないので&lt;br&gt;Prior Factorとしての&lt;br&gt;Unary Factorをつなげておく" style="text;html=1;align=center;verticalAlign=middle;resizable=0;points=[];autosize=1;" vertex="1" parent="malhQMyiqFlj0tt06wjK-1">
          
          <mxGeometry x="360" y="2705" width="170" height="50" as="geometry" />
          
        </mxCell>
        
        <mxCell id="iuoN6O5FOuv3n4ogCXSz-24" value="観測情報のFactorのモデルについて：&lt;br&gt;Bearing + Range　Factorを利用している。&lt;br&gt;なので観測情報は、Bearing角と車両からの距離(Range)になる。&lt;br&gt;ノイズパラメータは、Bearingの文さん、Rangeの分散として設定する。" style="text;html=1;align=left;verticalAlign=middle;resizable=0;points=[];autosize=1;" vertex="1" parent="malhQMyiqFlj0tt06wjK-1">
          
          <mxGeometry x="10" y="2760" width="400" height="60" as="geometry" />
          
        </mxCell>
        
        <mxCell id="iuoN6O5FOuv3n4ogCXSz-25" value="VariableのKeyについて：&lt;br&gt;前回までは、自分でVariableのKeyを整数で採番して設定していた。&lt;br&gt;このまま使っていいが、採番済みのKey番号など管理するのが大変なので、Helperが用意されている。&lt;br&gt;symbol Typeを利用すると、文字とIndexの組み合わせでUniqueな採番ができるようになっているらしい。&lt;br&gt;サンプルでは、Robot Poseはx、Landmark Locationはlとして文字を設定して、その文字の中で１からそれぞれ採番していた。" style="text;html=1;align=left;verticalAlign=middle;resizable=0;points=[];autosize=1;" vertex="1" parent="malhQMyiqFlj0tt06wjK-1">
          
          <mxGeometry x="10" y="2830" width="690" height="80" as="geometry" />
          
        </mxCell>
        
      </root>
      
    </mxGraphModel>
    
  </diagram>
  <diagram id="kNpirtqklpHFARO6nr_h" name="Backend review">
    
    <mxGraphModel dx="2768" dy="1277" grid="1" gridSize="10" guides="1" tooltips="1" connect="1" arrows="1" fold="1" page="1" pageScale="1" pageWidth="827" pageHeight="1169" math="0" shadow="0">
      
      <root>
        
        <mxCell id="k3kWPRcX1IhRkBELx6At-0" />
        
        <mxCell id="k3kWPRcX1IhRkBELx6At-1" parent="k3kWPRcX1IhRkBELx6At-0" />
        
        <mxCell id="k3kWPRcX1IhRkBELx6At-2" value="&lt;h1&gt;Backend review&lt;/h1&gt;" style="text;html=1;strokeColor=none;fillColor=none;spacing=5;spacingTop=-20;whiteSpace=wrap;overflow=hidden;rounded=0;" vertex="1" parent="k3kWPRcX1IhRkBELx6At-1">
          
          <mxGeometry x="-800" y="20" width="260" height="40" as="geometry" />
          
        </mxCell>
        
        <mxCell id="k3kWPRcX1IhRkBELx6At-3" value="&lt;h1&gt;Kimera-VIO&lt;/h1&gt;&lt;p&gt;Optimizationの計算にはGTSAMを利用&lt;/p&gt;" style="text;html=1;strokeColor=none;fillColor=none;spacing=5;spacingTop=-20;whiteSpace=wrap;overflow=hidden;rounded=0;" vertex="1" parent="k3kWPRcX1IhRkBELx6At-1">
          
          <mxGeometry x="-800" y="90" width="240" height="80" as="geometry" />
          
        </mxCell>
        
        <mxCell id="k3kWPRcX1IhRkBELx6At-11" style="edgeStyle=orthogonalEdgeStyle;rounded=0;orthogonalLoop=1;jettySize=auto;html=1;endArrow=classic;endFill=1;fontColor=#000000;" edge="1" parent="k3kWPRcX1IhRkBELx6At-1" source="k3kWPRcX1IhRkBELx6At-4">
          
          <mxGeometry relative="1" as="geometry">
            
            <mxPoint x="-370" y="155" as="targetPoint" />
            
          </mxGeometry>
          
        </mxCell>
        
        <mxCell id="k3kWPRcX1IhRkBELx6At-4" value="Backend Input&lt;br&gt;- Stereo measurement&lt;br&gt;- IMU measurement" style="rounded=0;whiteSpace=wrap;html=1;fillColor=#FFFFFF;align=left;fontColor=#000000;" vertex="1" parent="k3kWPRcX1IhRkBELx6At-1">
          
          <mxGeometry x="-563" y="100" width="150" height="110" as="geometry" />
          
        </mxCell>
        
        <mxCell id="k3kWPRcX1IhRkBELx6At-5" value="BackendState : Bootstrap" style="text;html=1;align=center;verticalAlign=middle;resizable=0;points=[];autosize=1;fontColor=#000000;" vertex="1" parent="k3kWPRcX1IhRkBELx6At-1">
          
          <mxGeometry x="-340" y="70" width="150" height="20" as="geometry" />
          
        </mxCell>
        
        <mxCell id="k3kWPRcX1IhRkBELx6At-6" value="BackendState : Nominal" style="text;html=1;align=center;verticalAlign=middle;resizable=0;points=[];autosize=1;fontColor=#000000;" vertex="1" parent="k3kWPRcX1IhRkBELx6At-1">
          
          <mxGeometry x="-340" y="190" width="140" height="20" as="geometry" />
          
        </mxCell>
        
        <mxCell id="k3kWPRcX1IhRkBELx6At-8" value="Initialize(未実装なので、ほかの場所で初期化しているのだろう)&lt;br&gt;初期化に成功したら、&lt;br&gt;BackendStateをNominalに遷移" style="rounded=0;whiteSpace=wrap;html=1;fillColor=#FFFFFF;align=left;fontColor=#000000;" vertex="1" parent="k3kWPRcX1IhRkBELx6At-1">
          
          <mxGeometry x="-320" y="100" width="200" height="70" as="geometry" />
          
        </mxCell>
        
        <mxCell id="k3kWPRcX1IhRkBELx6At-13" style="edgeStyle=orthogonalEdgeStyle;rounded=0;orthogonalLoop=1;jettySize=auto;html=1;endArrow=classic;endFill=1;fontColor=#000000;" edge="1" parent="k3kWPRcX1IhRkBELx6At-1" source="k3kWPRcX1IhRkBELx6At-9" target="k3kWPRcX1IhRkBELx6At-12">
          
          <mxGeometry relative="1" as="geometry" />
          
        </mxCell>
        
        <mxCell id="k3kWPRcX1IhRkBELx6At-9" value="Add Visual &amp;amp; Inertial State&lt;br&gt;Do optimization" style="rounded=0;whiteSpace=wrap;html=1;fillColor=#FFFFFF;align=left;fontColor=#000000;" vertex="1" parent="k3kWPRcX1IhRkBELx6At-1">
          
          <mxGeometry x="-320" y="210" width="160" height="40" as="geometry" />
          
        </mxCell>
        
        <mxCell id="k3kWPRcX1IhRkBELx6At-10" value="" style="endArrow=none;dashed=1;html=1;fontColor=#000000;" edge="1" parent="k3kWPRcX1IhRkBELx6At-1">
          
          <mxGeometry width="50" height="50" relative="1" as="geometry">
            
            <mxPoint x="-360" y="275" as="sourcePoint" />
            
            <mxPoint x="-360" y="45" as="targetPoint" />
            
          </mxGeometry>
          
        </mxCell>
        
        <mxCell id="k3kWPRcX1IhRkBELx6At-16" style="edgeStyle=orthogonalEdgeStyle;rounded=0;orthogonalLoop=1;jettySize=auto;html=1;entryX=0;entryY=0.5;entryDx=0;entryDy=0;endArrow=classic;endFill=1;fontColor=#000000;" edge="1" parent="k3kWPRcX1IhRkBELx6At-1" source="k3kWPRcX1IhRkBELx6At-12" target="k3kWPRcX1IhRkBELx6At-14">
          
          <mxGeometry relative="1" as="geometry" />
          
        </mxCell>
        
        <mxCell id="k3kWPRcX1IhRkBELx6At-12" value="Optimizationの前準備&lt;br&gt;- Factorの生成&lt;br&gt;&amp;nbsp; - 基本、メンバ変数として保持しているGraphにFactorを追加していく流れ。（iSAMのUpdateが完了した時点で、メンバとして保持されているGraphの内容はクリアされる。）&lt;br&gt;&amp;nbsp; &lt;br&gt;&amp;nbsp; - &lt;b&gt;IMU関係&lt;/b&gt;&lt;br&gt;&amp;nbsp; - Stereo RANSACから、前KeyFrameからの相対的な移動量がわかるので、これらから前KeyFramePoseとCurrentKeyFramePoseのBetweebFactorを生成&lt;br&gt;（使わなくてもOK、オプション次第）&lt;br&gt;&amp;nbsp; - IMU Factorの追加(PreintegrateされたIMUFactorを追加しているらしい)&lt;br&gt;&lt;br&gt;&amp;nbsp; - &lt;b&gt;Vision関係&lt;br&gt;&lt;/b&gt;&amp;nbsp; - 入力した観測情報（Feature IDとStereoPixel位置のペア）を、Backend側で保持している既観測情報に登録する？&lt;br&gt;&amp;nbsp; - 観測情報をFactorに追加する。（実装では、↑で選択したLandmark IDのみを渡していた。）" style="rounded=0;whiteSpace=wrap;html=1;fillColor=#FFFFFF;align=left;fontColor=#000000;" vertex="1" parent="k3kWPRcX1IhRkBELx6At-1">
          
          <mxGeometry x="-100" y="122.5" width="530" height="215" as="geometry" />
          
        </mxCell>
        
        <mxCell id="k3kWPRcX1IhRkBELx6At-17" style="edgeStyle=orthogonalEdgeStyle;rounded=0;orthogonalLoop=1;jettySize=auto;html=1;endArrow=classic;endFill=1;fontColor=#000000;" edge="1" parent="k3kWPRcX1IhRkBELx6At-1" source="k3kWPRcX1IhRkBELx6At-14">
          
          <mxGeometry relative="1" as="geometry">
            
            <mxPoint x="-500" y="250" as="targetPoint" />
            
            <Array as="points">
              
              <mxPoint x="1110" y="230" />
              
              <mxPoint x="1110" y="450" />
              
              <mxPoint x="-500" y="450" />
              
            </Array>
            
          </mxGeometry>
          
        </mxCell>
        
        <mxCell id="k3kWPRcX1IhRkBELx6At-14" value="Optimization&lt;br&gt;- 処理時間の計測&lt;br&gt;- SmarFactorSlotを更新するらしい、Fixed lag smootherで使うLagの範囲を更新するということ？&lt;br&gt;- iSAM::Update&lt;br&gt;- iSAMに追加したGraph情報を削除" style="rounded=0;whiteSpace=wrap;html=1;fillColor=#FFFFFF;align=left;fontColor=#000000;" vertex="1" parent="k3kWPRcX1IhRkBELx6At-1">
          
          <mxGeometry x="500" y="185" width="540" height="90" as="geometry" />
          
        </mxCell>
        
      </root>
      
    </mxGraphModel>
    
  </diagram>
  <diagram id="rxRwFc9iUt_cTfEsLqZz" name="Proposed-Backend">
    <mxGraphModel dx="5537" dy="3723" grid="1" gridSize="10" guides="1" tooltips="1" connect="1" arrows="1" fold="1" page="1" pageScale="1" pageWidth="827" pageHeight="1169" math="1" shadow="0">
      <root>
        <mxCell id="wGwapt1zrAfcY-FxFDx9-0" />
        <mxCell id="wGwapt1zrAfcY-FxFDx9-1" parent="wGwapt1zrAfcY-FxFDx9-0" />
        <mxCell id="GIy5xliaLUDgyUYNqGpI-0" value="BackendState : Bootstrap" style="text;html=1;align=left;verticalAlign=top;resizable=0;points=[];autosize=1;fontColor=#000000;fontStyle=1;fontSize=23;" parent="wGwapt1zrAfcY-FxFDx9-1" vertex="1">
          <mxGeometry x="-10" y="-180" width="300" height="30" as="geometry" />
        </mxCell>
        <mxCell id="GIy5xliaLUDgyUYNqGpI-4" value="" style="endArrow=none;dashed=1;html=1;fontColor=#000000;" parent="wGwapt1zrAfcY-FxFDx9-1" edge="1">
          <mxGeometry width="50" height="50" relative="1" as="geometry">
            <mxPoint x="-31" y="960" as="sourcePoint" />
            <mxPoint x="-30" y="-120" as="targetPoint" />
          </mxGeometry>
        </mxCell>
        <mxCell id="Zr_EwkMS2fTBts2OmuxF-0" value="&lt;h1&gt;&lt;font style=&quot;font-size: 60px&quot;&gt;Backend v0.2&lt;/font&gt;&lt;/h1&gt;" style="text;html=1;strokeColor=none;fillColor=none;spacing=5;spacingTop=-20;whiteSpace=wrap;overflow=hidden;rounded=0;fontSize=33;" parent="wGwapt1zrAfcY-FxFDx9-1" vertex="1">
          <mxGeometry x="-1040" y="-370" width="490" height="140" as="geometry" />
        </mxCell>
        <mxCell id="Zr_EwkMS2fTBts2OmuxF-9" style="edgeStyle=orthogonalEdgeStyle;rounded=0;orthogonalLoop=1;jettySize=auto;html=1;endArrow=classic;endFill=1;fontColor=#000000;entryX=0;entryY=0.5;entryDx=0;entryDy=0;" parent="wGwapt1zrAfcY-FxFDx9-1" source="Zr_EwkMS2fTBts2OmuxF-1" edge="1" target="1qP3F_WB5jPUnqhCblQz-0">
          <mxGeometry relative="1" as="geometry">
            <mxPoint x="-550" y="150" as="targetPoint" />
            <Array as="points">
              <mxPoint x="-870" y="165" />
            </Array>
          </mxGeometry>
        </mxCell>
        <mxCell id="Zr_EwkMS2fTBts2OmuxF-1" value="" style="rounded=0;whiteSpace=wrap;html=1;fillColor=#f5f5f5;strokeColor=#666666;fontColor=#333333;" parent="wGwapt1zrAfcY-FxFDx9-1" vertex="1">
          <mxGeometry x="-1000" y="-40" width="260" height="110" as="geometry" />
        </mxCell>
        <mxCell id="Zr_EwkMS2fTBts2OmuxF-2" value="Database&lt;br&gt;Frame" style="shape=datastore;whiteSpace=wrap;html=1;fillColor=#e1d5e7;strokeColor=#9673a6;" parent="wGwapt1zrAfcY-FxFDx9-1" vertex="1">
          <mxGeometry x="-840" y="-20" width="70" height="60" as="geometry" />
        </mxCell>
        <mxCell id="Zr_EwkMS2fTBts2OmuxF-6" value="Database&lt;br&gt;Map Point" style="shape=datastore;whiteSpace=wrap;html=1;fillColor=#e1d5e7;strokeColor=#9673a6;" parent="wGwapt1zrAfcY-FxFDx9-1" vertex="1">
          <mxGeometry x="-970" y="-20" width="70" height="60" as="geometry" />
        </mxCell>
        <mxCell id="Zr_EwkMS2fTBts2OmuxF-8" value="MapDatabase" style="text;html=1;align=center;verticalAlign=middle;resizable=0;points=[];autosize=1;" parent="wGwapt1zrAfcY-FxFDx9-1" vertex="1">
          <mxGeometry x="-1000" y="-60" width="90" height="20" as="geometry" />
        </mxCell>
        <mxCell id="Zr_EwkMS2fTBts2OmuxF-12" value="" style="endArrow=none;dashed=1;html=1;fontColor=#000000;" parent="wGwapt1zrAfcY-FxFDx9-1" edge="1">
          <mxGeometry width="50" height="50" relative="1" as="geometry">
            <mxPoint x="1240" y="1010" as="sourcePoint" />
            <mxPoint x="1240" y="460" as="targetPoint" />
          </mxGeometry>
        </mxCell>
        <mxCell id="Zr_EwkMS2fTBts2OmuxF-13" value="KeyFrame" style="text;html=1;align=left;verticalAlign=middle;resizable=0;points=[];autosize=1;fontColor=#000000;" parent="wGwapt1zrAfcY-FxFDx9-1" vertex="1">
          <mxGeometry x="1260" y="590" width="70" height="20" as="geometry" />
        </mxCell>
        <mxCell id="Zr_EwkMS2fTBts2OmuxF-14" value="Non-KeyFrame" style="text;html=1;align=left;verticalAlign=middle;resizable=0;points=[];autosize=1;fontColor=#000000;" parent="wGwapt1zrAfcY-FxFDx9-1" vertex="1">
          <mxGeometry x="1260" y="460" width="100" height="20" as="geometry" />
        </mxCell>
        <mxCell id="1qP3F_WB5jPUnqhCblQz-32" style="edgeStyle=orthogonalEdgeStyle;rounded=0;orthogonalLoop=1;jettySize=auto;html=1;fontSize=23;" edge="1" parent="wGwapt1zrAfcY-FxFDx9-1" source="Zr_EwkMS2fTBts2OmuxF-21" target="1qP3F_WB5jPUnqhCblQz-31">
          <mxGeometry relative="1" as="geometry" />
        </mxCell>
        <mxCell id="Zr_EwkMS2fTBts2OmuxF-21" value="&lt;b&gt;iSAM2初期化：&lt;/b&gt;&lt;br&gt;初期化済みのReference frame、Current frame、&lt;br&gt;位置初期化に成功したLandmark観測情報をProjection factorとして登録" style="rounded=0;whiteSpace=wrap;html=1;fillColor=#FFFFFF;align=left;fontColor=#000000;" parent="wGwapt1zrAfcY-FxFDx9-1" vertex="1">
          <mxGeometry x="2220" y="110" width="335" height="90" as="geometry" />
        </mxCell>
        <mxCell id="Iiumq8NnN7KaLzQg69bI-0" value="&lt;h1&gt;Camera modelの問題&lt;/h1&gt;" style="text;html=1;strokeColor=none;fillColor=none;spacing=5;spacingTop=-20;whiteSpace=wrap;overflow=hidden;rounded=0;" parent="wGwapt1zrAfcY-FxFDx9-1" vertex="1">
          <mxGeometry x="-1060" y="-880" width="260" height="40" as="geometry" />
        </mxCell>
        <mxCell id="Iiumq8NnN7KaLzQg69bI-1" value="GTSAMには、Pinholeベースの平面に一旦投影するタイプの&lt;br&gt;カメラモデルは準備されているが、180度以上の画角を扱える&lt;br&gt;球面投影モデル（VINS-Monoみたいなやつ）は実装されていない。&lt;br&gt;ここをどうするか？？？&lt;br&gt;&lt;br&gt;１ヶ月以内にFisheyeのFactorが追加されたので、これを参考に自分仕様の&lt;br&gt;Fisheyeを考えてみる。=&amp;gt; Basaltが神なのでできたよ！" style="text;html=1;align=left;verticalAlign=middle;resizable=0;points=[];autosize=1;fontColor=#000000;" parent="wGwapt1zrAfcY-FxFDx9-1" vertex="1">
          <mxGeometry x="-1055" y="-830" width="420" height="100" as="geometry" />
        </mxCell>
        <mxCell id="1qP3F_WB5jPUnqhCblQz-2" style="edgeStyle=orthogonalEdgeStyle;rounded=0;orthogonalLoop=1;jettySize=auto;html=1;entryX=1;entryY=0.5;entryDx=0;entryDy=0;" edge="1" parent="wGwapt1zrAfcY-FxFDx9-1" source="1qP3F_WB5jPUnqhCblQz-0" target="Zr_EwkMS2fTBts2OmuxF-1">
          <mxGeometry relative="1" as="geometry">
            <Array as="points">
              <mxPoint x="-403" y="15" />
            </Array>
          </mxGeometry>
        </mxCell>
        <mxCell id="1qP3F_WB5jPUnqhCblQz-27" style="edgeStyle=orthogonalEdgeStyle;rounded=0;orthogonalLoop=1;jettySize=auto;html=1;fontSize=23;" edge="1" parent="wGwapt1zrAfcY-FxFDx9-1" source="1qP3F_WB5jPUnqhCblQz-0">
          <mxGeometry relative="1" as="geometry">
            <mxPoint x="-50" y="165" as="targetPoint" />
          </mxGeometry>
        </mxCell>
        <mxCell id="1qP3F_WB5jPUnqhCblQz-0" value="新規観測Frameから、&lt;br&gt;Landmark databaseを更新する&lt;br&gt;・追加済みLandmarkは被観測FrameとしてFrameIDを追加&lt;br&gt;・Databaseに存在していないLandmarkの場合は新規追加" style="rounded=0;whiteSpace=wrap;html=1;fillColor=#FFFFFF;align=left;fontColor=#000000;verticalAlign=top;" vertex="1" parent="wGwapt1zrAfcY-FxFDx9-1">
          <mxGeometry x="-575" y="130" width="343" height="70" as="geometry" />
        </mxCell>
        <mxCell id="1qP3F_WB5jPUnqhCblQz-7" style="edgeStyle=orthogonalEdgeStyle;rounded=0;orthogonalLoop=1;jettySize=auto;html=1;entryX=0;entryY=0.5;entryDx=0;entryDy=0;" edge="1" parent="wGwapt1zrAfcY-FxFDx9-1" source="1qP3F_WB5jPUnqhCblQz-5" target="1qP3F_WB5jPUnqhCblQz-11">
          <mxGeometry relative="1" as="geometry">
            <mxPoint x="780" y="245" as="targetPoint" />
          </mxGeometry>
        </mxCell>
        <mxCell id="1qP3F_WB5jPUnqhCblQz-5" value="&lt;b&gt;TryInitialize：５点法＋Triangulation&lt;br&gt;&lt;/b&gt;入力Frame：Reference frame(RF), Current frame(CF)&lt;br&gt;&lt;br&gt;対象Landmarkの選定基準：&lt;br&gt;RF, CFで共通して観測しているLandmark&lt;br&gt;&lt;br&gt;処理内容&lt;br&gt;1. 5point Ransac(OpenGV, NISTER)&lt;br&gt;2. 対象LandmarkをTriangulate&lt;br&gt;3. 初期化失敗Landmarkの除去&lt;br&gt;&lt;br&gt;Outlier Landmark除去条件：&lt;br&gt;1. 5p RansacでのOutlier&lt;br&gt;2. 視差条件：Triangulateしたとき、RF, CF, Landmarkの成す角度が、0.01 rad以下&lt;br&gt;&lt;br&gt;初期化成功基準：&lt;br&gt;1. 画像座標上平均視差\( \frac{1}{N} \sum{(|p_c^d - p_r^d|)} \)が parallax_threshold以上&lt;br&gt;2. 5point Ransacに成功&lt;br&gt;3. 5point RansacのInlier割合がinlier_rate_threshold以上&lt;br&gt;4. 視差角度から除去した最終的な初期化成功Landmark数がinlier_rate_threshold以上" style="rounded=0;whiteSpace=wrap;html=1;fillColor=#FFFFFF;align=left;fontColor=#000000;" vertex="1" parent="wGwapt1zrAfcY-FxFDx9-1">
          <mxGeometry x="70" y="-20" width="530" height="350" as="geometry" />
        </mxCell>
        <mxCell id="1qP3F_WB5jPUnqhCblQz-8" style="edgeStyle=orthogonalEdgeStyle;rounded=0;orthogonalLoop=1;jettySize=auto;html=1;" edge="1" parent="wGwapt1zrAfcY-FxFDx9-1" source="1qP3F_WB5jPUnqhCblQz-5" target="1qP3F_WB5jPUnqhCblQz-10">
          <mxGeometry relative="1" as="geometry">
            <mxPoint x="670" y="120" as="targetPoint" />
            <mxPoint x="605" y="245" as="sourcePoint" />
            <Array as="points">
              <mxPoint x="660" y="155" />
              <mxPoint x="660" y="-95" />
            </Array>
          </mxGeometry>
        </mxCell>
        <mxCell id="1qP3F_WB5jPUnqhCblQz-10" value="次Frameで初期化トライ" style="text;html=1;align=center;verticalAlign=middle;resizable=0;points=[];autosize=1;" vertex="1" parent="wGwapt1zrAfcY-FxFDx9-1">
          <mxGeometry x="700" y="-105" width="150" height="20" as="geometry" />
        </mxCell>
        <mxCell id="1qP3F_WB5jPUnqhCblQz-16" style="edgeStyle=orthogonalEdgeStyle;rounded=0;orthogonalLoop=1;jettySize=auto;html=1;entryX=0;entryY=0.5;entryDx=0;entryDy=0;entryPerimeter=0;" edge="1" parent="wGwapt1zrAfcY-FxFDx9-1" source="1qP3F_WB5jPUnqhCblQz-11" target="1qP3F_WB5jPUnqhCblQz-19">
          <mxGeometry relative="1" as="geometry">
            <mxPoint x="1600" y="40" as="targetPoint" />
          </mxGeometry>
        </mxCell>
        <mxCell id="1qP3F_WB5jPUnqhCblQz-22" style="edgeStyle=orthogonalEdgeStyle;rounded=0;orthogonalLoop=1;jettySize=auto;html=1;" edge="1" parent="wGwapt1zrAfcY-FxFDx9-1" source="1qP3F_WB5jPUnqhCblQz-11" target="1qP3F_WB5jPUnqhCblQz-21">
          <mxGeometry relative="1" as="geometry" />
        </mxCell>
        <mxCell id="1qP3F_WB5jPUnqhCblQz-11" value="&lt;b&gt;RefineInitializedMap：&lt;br&gt;初期化したMap（5Point+Triangulation）のFramePose、LandmarkPositionにBAを適用、Map精度を向上させる&lt;br&gt;&lt;/b&gt;入力&lt;br&gt;- Frame: Reference frame(RF), Current frame(CF)&lt;br&gt;- Landmark: TryInitializeでOutlierとならなかったLandmark&lt;br&gt;&lt;br&gt;ここでの入力情報はOutlierが除去されたあとのものとしている&lt;br&gt;なので入力Landmarkのチェックなどは行わない&lt;br&gt;&lt;br&gt;処理内容&lt;br&gt;1. GTSAM Factor graphを生成&lt;br&gt;2. 最適化実施&lt;br&gt;&lt;br&gt;初期化成功基準：&lt;br&gt;1. 最適化時Exceptionが発生なし" style="rounded=0;whiteSpace=wrap;html=1;fillColor=#FFFFFF;align=left;fontColor=#000000;" vertex="1" parent="wGwapt1zrAfcY-FxFDx9-1">
          <mxGeometry x="810" y="30" width="653" height="250" as="geometry" />
        </mxCell>
        <mxCell id="1qP3F_WB5jPUnqhCblQz-13" value="失敗" style="text;html=1;align=center;verticalAlign=middle;resizable=0;points=[];autosize=1;" vertex="1" parent="wGwapt1zrAfcY-FxFDx9-1">
          <mxGeometry x="660" y="20" width="40" height="20" as="geometry" />
        </mxCell>
        <mxCell id="1qP3F_WB5jPUnqhCblQz-15" value="成功" style="text;html=1;align=center;verticalAlign=middle;resizable=0;points=[];autosize=1;" vertex="1" parent="wGwapt1zrAfcY-FxFDx9-1">
          <mxGeometry x="713" y="164" width="40" height="20" as="geometry" />
        </mxCell>
        <mxCell id="1qP3F_WB5jPUnqhCblQz-17" value="成功" style="text;html=1;align=center;verticalAlign=middle;resizable=0;points=[];autosize=1;" vertex="1" parent="wGwapt1zrAfcY-FxFDx9-1">
          <mxGeometry x="1590" y="164" width="40" height="20" as="geometry" />
        </mxCell>
        <mxCell id="1qP3F_WB5jPUnqhCblQz-18" value="失敗" style="text;html=1;align=center;verticalAlign=middle;resizable=0;points=[];autosize=1;" vertex="1" parent="wGwapt1zrAfcY-FxFDx9-1">
          <mxGeometry x="1540" y="20" width="40" height="20" as="geometry" />
        </mxCell>
        <mxCell id="1qP3F_WB5jPUnqhCblQz-19" value="次Frameで初期化トライ" style="text;html=1;align=center;verticalAlign=middle;resizable=0;points=[];autosize=1;" vertex="1" parent="wGwapt1zrAfcY-FxFDx9-1">
          <mxGeometry x="1600" y="-90" width="150" height="20" as="geometry" />
        </mxCell>
        <mxCell id="1qP3F_WB5jPUnqhCblQz-20" value="メモ：&lt;br&gt;Landmark位置初期化時のOutlier判定に&lt;br&gt;Reprojection errorも利用してみたが利用できず。&lt;br&gt;そもそも、Triangulateとは、２FrameでのReprojectionErrorが小さくなるような&lt;br&gt;Landmark位置を選ぶものなので、Landmark位置の良し悪しの判定にReprojection errorを&lt;br&gt;利用することはできないと思われる。" style="text;html=1;align=left;verticalAlign=middle;resizable=0;points=[];autosize=1;" vertex="1" parent="wGwapt1zrAfcY-FxFDx9-1">
          <mxGeometry x="70" y="-120" width="490" height="90" as="geometry" />
        </mxCell>
        <mxCell id="1qP3F_WB5jPUnqhCblQz-23" style="edgeStyle=orthogonalEdgeStyle;rounded=0;orthogonalLoop=1;jettySize=auto;html=1;entryX=0;entryY=0.5;entryDx=0;entryDy=0;" edge="1" parent="wGwapt1zrAfcY-FxFDx9-1" source="1qP3F_WB5jPUnqhCblQz-21" target="Zr_EwkMS2fTBts2OmuxF-21">
          <mxGeometry relative="1" as="geometry" />
        </mxCell>
        <mxCell id="1qP3F_WB5jPUnqhCblQz-21" value="&lt;b&gt;MapDatabaseの更新：&lt;br&gt;&lt;/b&gt;入力&lt;br&gt;- PoseのRefine済みFrame: Reference frame(RF), Current frame(CF)&lt;br&gt;- PositionのRefine済みLandmark&lt;br&gt;&lt;br&gt;処理内容&lt;br&gt;Frame Poseの設定&lt;br&gt;Landmark Positionの設定" style="rounded=0;whiteSpace=wrap;html=1;fillColor=#FFFFFF;align=left;fontColor=#000000;" vertex="1" parent="wGwapt1zrAfcY-FxFDx9-1">
          <mxGeometry x="1680" y="92" width="410" height="126" as="geometry" />
        </mxCell>
        <mxCell id="1qP3F_WB5jPUnqhCblQz-26" value="BackendState : Nominal" style="text;html=1;align=left;verticalAlign=top;resizable=0;points=[];autosize=1;fontColor=#000000;fontStyle=1;fontSize=23;" vertex="1" parent="wGwapt1zrAfcY-FxFDx9-1">
          <mxGeometry x="-10" y="526.87" width="280" height="30" as="geometry" />
        </mxCell>
        <mxCell id="1qP3F_WB5jPUnqhCblQz-31" value="BackendStateをMoninalに変更" style="text;html=1;align=center;verticalAlign=middle;resizable=0;points=[];autosize=1;" vertex="1" parent="wGwapt1zrAfcY-FxFDx9-1">
          <mxGeometry x="2630" y="145" width="180" height="20" as="geometry" />
        </mxCell>
        <mxCell id="1qP3F_WB5jPUnqhCblQz-36" style="edgeStyle=orthogonalEdgeStyle;rounded=0;orthogonalLoop=1;jettySize=auto;html=1;fontSize=23;entryX=0.003;entryY=0.45;entryDx=0;entryDy=0;entryPerimeter=0;" edge="1" parent="wGwapt1zrAfcY-FxFDx9-1" source="1qP3F_WB5jPUnqhCblQz-33" target="1qP3F_WB5jPUnqhCblQz-41">
          <mxGeometry relative="1" as="geometry">
            <mxPoint x="360" y="570" as="targetPoint" />
          </mxGeometry>
        </mxCell>
        <mxCell id="1qP3F_WB5jPUnqhCblQz-43" style="edgeStyle=orthogonalEdgeStyle;rounded=0;orthogonalLoop=1;jettySize=auto;html=1;fontSize=12;" edge="1" parent="wGwapt1zrAfcY-FxFDx9-1" source="1qP3F_WB5jPUnqhCblQz-33" target="1qP3F_WB5jPUnqhCblQz-34">
          <mxGeometry relative="1" as="geometry" />
        </mxCell>
        <mxCell id="1qP3F_WB5jPUnqhCblQz-33" value="&lt;b&gt;InitializePose：3point RansacでFrameのPose推定&lt;br&gt;&lt;br&gt;&lt;/b&gt;入力：&lt;br&gt;Current frame(CF)&lt;br&gt;前回FrameのPose&lt;br&gt;&lt;br&gt;処理内容&lt;br&gt;1. 3point Ransac(OpenGV, KNEIP)&lt;br&gt;&lt;br&gt;Pose初期化成功基準:&lt;br&gt;1. 3point Ransacに成功&lt;br&gt;&lt;br&gt;MapDatabaseの更新なし" style="rounded=0;whiteSpace=wrap;html=1;fillColor=#FFFFFF;align=left;fontColor=#000000;" vertex="1" parent="wGwapt1zrAfcY-FxFDx9-1">
          <mxGeometry y="615" width="330" height="205" as="geometry" />
        </mxCell>
        <mxCell id="1qP3F_WB5jPUnqhCblQz-44" style="edgeStyle=orthogonalEdgeStyle;rounded=0;orthogonalLoop=1;jettySize=auto;html=1;fontSize=12;entryX=0;entryY=0.333;entryDx=0;entryDy=0;entryPerimeter=0;" edge="1" parent="wGwapt1zrAfcY-FxFDx9-1" source="1qP3F_WB5jPUnqhCblQz-34" target="1qP3F_WB5jPUnqhCblQz-45">
          <mxGeometry relative="1" as="geometry">
            <mxPoint x="870" y="520" as="targetPoint" />
          </mxGeometry>
        </mxCell>
        <mxCell id="1qP3F_WB5jPUnqhCblQz-48" style="edgeStyle=orthogonalEdgeStyle;rounded=0;orthogonalLoop=1;jettySize=auto;html=1;fontSize=12;entryX=0;entryY=0.5;entryDx=0;entryDy=0;" edge="1" parent="wGwapt1zrAfcY-FxFDx9-1" source="1qP3F_WB5jPUnqhCblQz-34" target="1qP3F_WB5jPUnqhCblQz-50">
          <mxGeometry relative="1" as="geometry">
            <mxPoint x="950" y="717" as="targetPoint" />
            <Array as="points" />
          </mxGeometry>
        </mxCell>
        <mxCell id="1qP3F_WB5jPUnqhCblQz-34" value="&lt;b&gt;RefinePose：InitializePoseを初期値にしてMotion only BAを実施&lt;br&gt;Pose推定精度を向上させる&lt;br&gt;&lt;br&gt;&lt;/b&gt;入力：&lt;br&gt;Pose初期化済みCurrent frame(CF)&lt;br&gt;MapDatabase&lt;br&gt;&lt;br&gt;対象Landmark条件&lt;br&gt;1. 入力Frameで観測されている&lt;br&gt;2. 最適化済み(is_added_ == true)&lt;br&gt;3. Outlierでない(is_outlier == false)&lt;br&gt;&lt;br&gt;処理内容&lt;br&gt;1. 入力Frameの観測Landmark位置をPrior Factorとして設定&lt;br&gt;2. Frame観測情報をGeneral Projeciton Factorとして設定&lt;br&gt;3. 最適化実施&lt;br&gt;&lt;br&gt;PoseRefine成功条件&lt;br&gt;1. 最適化時例外が発生しない&lt;br&gt;&lt;br&gt;MapDatabaseの更新なし" style="rounded=0;whiteSpace=wrap;html=1;fillColor=#FFFFFF;align=left;fontColor=#000000;" vertex="1" parent="wGwapt1zrAfcY-FxFDx9-1">
          <mxGeometry x="440" y="556.87" width="380" height="321.25" as="geometry" />
        </mxCell>
        <mxCell id="1qP3F_WB5jPUnqhCblQz-39" value="失敗" style="text;html=1;align=center;verticalAlign=middle;resizable=0;points=[];autosize=1;fontSize=12;" vertex="1" parent="wGwapt1zrAfcY-FxFDx9-1">
          <mxGeometry x="374" y="632.5" width="40" height="20" as="geometry" />
        </mxCell>
        <mxCell id="1qP3F_WB5jPUnqhCblQz-41" value="FramePoseの更新なしで終了？&lt;br&gt;これでSLAMが成り立つか？" style="text;html=1;align=center;verticalAlign=middle;resizable=0;points=[];autosize=1;fontSize=12;" vertex="1" parent="wGwapt1zrAfcY-FxFDx9-1">
          <mxGeometry x="420" y="490" width="190" height="30" as="geometry" />
        </mxCell>
        <mxCell id="1qP3F_WB5jPUnqhCblQz-42" value="成功" style="text;html=1;align=center;verticalAlign=middle;resizable=0;points=[];autosize=1;fontSize=12;" vertex="1" parent="wGwapt1zrAfcY-FxFDx9-1">
          <mxGeometry x="374" y="725" width="40" height="20" as="geometry" />
        </mxCell>
        <mxCell id="1qP3F_WB5jPUnqhCblQz-45" value="FramePoseの更新なしで終了？&lt;br&gt;これでSLAMが成り立つか？" style="text;html=1;align=center;verticalAlign=middle;resizable=0;points=[];autosize=1;fontSize=12;" vertex="1" parent="wGwapt1zrAfcY-FxFDx9-1">
          <mxGeometry x="880" y="500" width="190" height="30" as="geometry" />
        </mxCell>
        <mxCell id="1qP3F_WB5jPUnqhCblQz-46" value="失敗" style="text;html=1;align=center;verticalAlign=middle;resizable=0;points=[];autosize=1;fontSize=12;" vertex="1" parent="wGwapt1zrAfcY-FxFDx9-1">
          <mxGeometry x="850" y="595" width="40" height="20" as="geometry" />
        </mxCell>
        <mxCell id="1qP3F_WB5jPUnqhCblQz-49" value="成功" style="text;html=1;align=center;verticalAlign=middle;resizable=0;points=[];autosize=1;fontSize=12;" vertex="1" parent="wGwapt1zrAfcY-FxFDx9-1">
          <mxGeometry x="870" y="725" width="40" height="20" as="geometry" />
        </mxCell>
        <mxCell id="1qP3F_WB5jPUnqhCblQz-51" style="edgeStyle=orthogonalEdgeStyle;rounded=0;orthogonalLoop=1;jettySize=auto;html=1;fontSize=12;" edge="1" parent="wGwapt1zrAfcY-FxFDx9-1" source="1qP3F_WB5jPUnqhCblQz-50">
          <mxGeometry relative="1" as="geometry">
            <mxPoint x="1210" y="717.5" as="targetPoint" />
          </mxGeometry>
        </mxCell>
        <mxCell id="1qP3F_WB5jPUnqhCblQz-50" value="&lt;b&gt;MapDatabseを更新：&lt;/b&gt;&lt;br&gt;RefineしたPoseを設定" style="rounded=0;whiteSpace=wrap;html=1;fillColor=#FFFFFF;align=left;fontColor=#000000;" vertex="1" parent="wGwapt1zrAfcY-FxFDx9-1">
          <mxGeometry x="960" y="687.5" width="170" height="60" as="geometry" />
        </mxCell>
        <mxCell id="1qP3F_WB5jPUnqhCblQz-52" value="終了、次Frameへ" style="rounded=0;whiteSpace=wrap;html=1;fillColor=#FFFFFF;align=left;fontColor=#000000;" vertex="1" parent="wGwapt1zrAfcY-FxFDx9-1">
          <mxGeometry x="1310" y="490" width="160" height="40" as="geometry" />
        </mxCell>
        <mxCell id="1qP3F_WB5jPUnqhCblQz-57" value="" style="edgeStyle=orthogonalEdgeStyle;rounded=0;orthogonalLoop=1;jettySize=auto;html=1;fontSize=12;" edge="1" parent="wGwapt1zrAfcY-FxFDx9-1" source="1qP3F_WB5jPUnqhCblQz-53" target="1qP3F_WB5jPUnqhCblQz-56">
          <mxGeometry relative="1" as="geometry" />
        </mxCell>
        <mxCell id="1qP3F_WB5jPUnqhCblQz-53" value="&lt;b&gt;TriangulateKeyFrame：前回KeyFrameと今回KeyFrameでLandmarkをTriangulateする&lt;br&gt;&lt;/b&gt;&lt;br&gt;入力：&lt;br&gt;Current Key Frame(CKF)&lt;br&gt;Previous Key Frame(PKF)&lt;br&gt;MapDatabase&lt;br&gt;&lt;br&gt;対象Landmark条件&lt;br&gt;1. CKFとPKFで共通して観測されている&lt;br&gt;2. 初期化されていない(is_initialized == false)&lt;br&gt;&lt;br&gt;&lt;br&gt;処理内容&lt;br&gt;1. 対象Landmark選定&lt;br&gt;2. Triangulate(OpenGV: triangulate2)&lt;br&gt;3. Outlier除去&lt;br&gt;4. Mapdatabase更新（Triangulateできたものは初期化済みとなる）&lt;br&gt;&lt;br&gt;&lt;br&gt;Outlier条件；以下条件を満たすLandmarkはOutlierとしてMapDatabaseの更新はなしで未初期化のままとなる&lt;br&gt;1. PKFへのReprojetion error が5px以内&lt;br&gt;2. CKF. PKC. Landmarkの成す角度（視差）が1.0deg以内&lt;br&gt;3. Projection errorが発生&lt;br&gt;&lt;br&gt;成功条件&lt;br&gt;1. Triangulate対象のLandmarkが存在する" style="rounded=0;whiteSpace=wrap;html=1;fillColor=#FFFFFF;align=left;fontColor=#000000;" vertex="1" parent="wGwapt1zrAfcY-FxFDx9-1">
          <mxGeometry x="1310" y="632.5" width="610" height="400" as="geometry" />
        </mxCell>
        <mxCell id="1qP3F_WB5jPUnqhCblQz-59" style="edgeStyle=orthogonalEdgeStyle;rounded=0;orthogonalLoop=1;jettySize=auto;html=1;fontSize=12;" edge="1" parent="wGwapt1zrAfcY-FxFDx9-1" source="1qP3F_WB5jPUnqhCblQz-56" target="1qP3F_WB5jPUnqhCblQz-58">
          <mxGeometry relative="1" as="geometry" />
        </mxCell>
        <mxCell id="1qP3F_WB5jPUnqhCblQz-56" value="&lt;b&gt;UpdateISAMObservation：iSAMに今回KeyFrameの観測情報を追加、最適化を実施する&lt;/b&gt;&lt;br&gt;&lt;br&gt;入力：&lt;br&gt;Current Key Frame(CKF)&lt;br&gt;Previous Key Frame(PKF)&lt;br&gt;MapDatabase&lt;br&gt;&lt;br&gt;対象Landmark条件&lt;br&gt;1. CKFとPKFで共通して観測されている&lt;br&gt;2. 初期化されていない(is_initialized == false)&lt;br&gt;&lt;br&gt;&lt;br&gt;処理内容&lt;br&gt;1. CKFとPKFに関するProjection factorの追加&lt;br&gt;2. 新規追加LandmarkのPositon初期値設定&lt;br&gt;3. 新規追加FrameのPose初期値設定&lt;br&gt;4. iSAM2Update + 最適化１Step&lt;br&gt;5. 追加最適化実行&lt;br&gt;6. iSAM2内から最適化後のFrame Pose、Landmark Positionの抽出、MapDatabaseの更新&lt;br&gt;7. MapDatabaseからOutlier除去を実施&lt;br&gt;&lt;br&gt;Projection Factorの追加対象（現状の実装）&lt;br&gt;1. CKF: CKFで観測したLandmarkのうち、Initializeに成功しているLandmark&lt;br&gt;2. PKF: PKFとCKFで観測し、PKFでのProjection factorをまだ追加していないLandmark&lt;br&gt;&lt;br&gt;（修正）&lt;br&gt;ここで追加すべきProjeciton Factorは、&lt;br&gt;1. 今回KeyFrame（CKF）で観測していて、初期化済みのLandmarkについてのProjection Factor&lt;br&gt;2. Triangulationで新規追加されたLandmarkを観測しているFrameからのProjection Factor&lt;br&gt;　PKFに限った話ではなくLandmarkを観測している全てのFrameからのProjection Factorを追加できる&lt;br&gt;　しかし、視差が十分でないFrameからのProjeciton factorも追加されうるので必ずしも良い影響があるとも限らない　&lt;br&gt;&lt;br&gt;最適化後、Outlier判定条件&lt;br&gt;1. CKFへのReproection errorが3px以上&lt;br&gt;2. Projection errorが発生" style="rounded=0;whiteSpace=wrap;html=1;fillColor=#FFFFFF;align=left;fontColor=#000000;" vertex="1" parent="wGwapt1zrAfcY-FxFDx9-1">
          <mxGeometry x="2110" y="526.87" width="660" height="611.25" as="geometry" />
        </mxCell>
        <mxCell id="1qP3F_WB5jPUnqhCblQz-58" value="終了、次Frameへ" style="text;html=1;align=center;verticalAlign=middle;resizable=0;points=[];autosize=1;" vertex="1" parent="wGwapt1zrAfcY-FxFDx9-1">
          <mxGeometry x="2900" y="822.5" width="110" height="20" as="geometry" />
        </mxCell>
        <mxCell id="1qP3F_WB5jPUnqhCblQz-85" value="" style="endArrow=none;dashed=1;html=1;fontColor=#000000;dashPattern=1 4;" edge="1" parent="wGwapt1zrAfcY-FxFDx9-1">
          <mxGeometry width="50" height="50" relative="1" as="geometry">
            <mxPoint x="10" y="400" as="sourcePoint" />
            <mxPoint x="2930" y="400" as="targetPoint" />
          </mxGeometry>
        </mxCell>
      </root>
    </mxGraphModel>
  </diagram>
</mxfile>
